# xmcd CD database file
#
# Track frame offsets:
#	150
#	11991
#	24292
#	34155
#	45885
#	57225
#	70996
#	81625
#	94045
#	104785
#	115456
#	125912
#
# Disc length: 1804 seconds
#
# Revision: 0
# Processed by: cddbd v1.5.1PL2 Copyright (c) Steve Scherf et al.
# Submitted via: CDex 1.51
#
DISCID=aa070a0c
DTITLE=Jerry Lee Lewis - C and W Hall Of Fame Songs
DYEAR=1900
DGENRE=Country
TTITLE0=I Wonder Where You Are Tonight
TTITLE1=I'm So Lonesome I Could Cry
TTITLE2=Jambalaya
TTITLE3=Four Walls
TTITLE4=Heartaches By The Numbers
TTITLE5=Sweet Dreams
TTITLE6=Born To Lose
TTITLE7=Oh Lonesome Me
TTITLE8=You Still Got A Place In My Heart
TTITLE9=I Love You Because
TTITLE10=Jackson
TTITLE11=Mom and Dad Waltz
EXTD=
EXTT0=
EXTT1=
EXTT2=
EXTT3=
EXTT4=
EXTT5=
EXTT6=
EXTT7=
EXTT8=
EXTT9=
EXTT10=
EXTT11=
PLAYORDER=
